PathFileType	4	(X/Y/Z)	39_2_15_p0_0-398_filt_butterworth.trc
DataRate	CameraRate	NumFrames	NumMarkers	Units	OrigDataRate	OrigDataStartFrame	OrigNumFrames
59.0	59.0	6	27	m	59.0	99	398
Frame#	Time	RHip			RKnee			RAnkle			RBigToe			RSmallToe			RHeel			LHip			LKnee			LAnkle			LBigToe			LSmallToe			LHeel			Neck			Head			Nose			RShoulder			RElbow			RWrist			RThumb			RIndex			RPinky			LShoulder			LElbow			LWrist			LThumb			LIndex			LPinky			
		X1	Y1	Z1	X2	Y2	Z2	X3	Y3	Z3	X4	Y4	Z4	X5	Y5	Z5	X6	Y6	Z6	X7	Y7	Z7	X8	Y8	Z8	X9	Y9	Z9	X10	Y10	Z10	X11	Y11	Z11	X12	Y12	Z12	X13	Y13	Z13	X14	Y14	Z14	X15	Y15	Z15	X16	Y16	Z16	X17	Y17	Z17	X18	Y18	Z18	X19	Y19	Z19	X20	Y20	Z20	X21	Y21	Z21	X22	Y22	Z22	X23	Y23	Z23	X24	Y24	Z24	X25	Y25	Z25	X26	Y26	Z26	X27	Y27	Z27	
99	1.6779661016949152	0.2989146737671255	0.7150909639186789	0.8099755419961632	0.2559086550149159	0.33635486843070533	0.8153136352055622	0.23189014456919313	-0.011785412983180366	0.7975530803596235	0.22378443173802637	-0.05335680082648575	0.6948193748194149	0.27982577955163246	-0.056837166954827587	0.7020047508542717	0.20811586225830386	-0.07560865686004473	0.8483931324644447	0.10828442043067771	0.7353481504198706	0.7228277860575824	0.10068072429465041	0.35492550653621247	0.7678690912002661	0.03957069728294692	-0.032151045719467045	0.8192726467976091	0.06384129698151339	-0.020751189938297207	0.6568313131909954	0.01412830341837692	-0.011707790601152401	0.6706867786028085	0.04396255328661393	-0.08764189160037514	0.8592753712500987	0.17658478736167682	1.3234083810192265	0.7068324867873982	0.17747639236932714	1.5727358734230512	0.6955236980917936	0.21914799709069138	1.4533001412973419	0.6137269676862838	0.34435819723144967	1.2588972010861248	0.7589738797054121	0.4101262422060954	0.9954413926592296	0.8412686208701055	0.40009114853236116	0.7504593283488386	0.7699055920349823	0.3302939206117147	0.676809809945777	0.6820547930648955	0.34588829229799	0.6374897108607154	0.7211358031665323	0.3622681123067002	0.6122949698987694	0.7471382474931139	0.03202243416040127	1.2265284498345548	0.6934886255480966	-0.01708642362768904	0.9740792245773651	0.6605637306232439	0.0766081021048811	0.7281408601288613	0.6030945994556985	0.12977066955350042	0.6389184979370142	0.688581964965354	0.11848998327107924	0.5999702921684914	0.665480408723795	0.08014455220199126	0.6125638550274832	0.6153304976079337	
100	1.694915254237288	0.29896825748404526	0.7151868449153171	0.8099109689525466	0.256139619593265	0.3356914581189316	0.816570816316209	0.23185012331260574	-0.011950377886670763	0.7975844088610452	0.22375477244050382	-0.05369451455365713	0.6948604392973998	0.279945518960575	-0.056866546181090744	0.7021673643556849	0.2080362227927071	-0.0759617346646502	0.8489613050382917	0.10877658784004288	0.735999097890106	0.7218244205147187	0.10129248332594501	0.3550053148601706	0.7665897460070437	0.03953549235040559	-0.03225923389337139	0.8192887969310665	0.06386427954503524	-0.02092944681769391	0.6568953340656604	0.014093978114897484	-0.011728604738509896	0.670712689479536	0.04394438935004608	-0.08765806215422997	0.8592894143918068	0.17657971943024867	1.3233647290970845	0.7068837273541592	0.17795489829910877	1.5730437585844477	0.694324186825807	0.21914233616954576	1.4519237005327683	0.6135714973767755	0.3443356665102944	1.2589929488802296	0.7590380642236987	0.41015358065692553	0.995484507704784	0.8411791149109519	0.4001416434234025	0.7506733788391324	0.7698699683677699	0.3302860760684586	0.6767960445045303	0.6818688007891127	0.34594445350874786	0.6377279878050043	0.7212381049489714	0.36342476672645563	0.6123624548643516	0.7472583070697896	0.03197772108376187	1.2265909057010598	0.6931646926932568	-0.01587895069486854	0.9752559049577075	0.6541714245519424	0.0771267927749028	0.728610044983658	0.6019345330270657	0.13116113328187523	0.6395433998494422	0.6846669693546991	0.12026281363848343	0.599446777967998	0.6661032288481589	0.07998129832610443	0.6125266858925158	0.6156913260896092	
101	1.7118644067796611	0.29896673493547427	0.7152086566866691	0.8097824415509295	0.25630529637665517	0.3354049069452796	0.8171320649199133	0.23188234850790035	-0.012022031978080841	0.7975992598562222	0.22376215843513073	-0.053544237587938755	0.6949155534714975	0.2801625441629184	-0.05675418354352012	0.7021359787383286	0.20780914823423657	-0.07646755282920134	0.8500879418790912	0.10925144488696609	0.7365178563248808	0.720940362317789	0.10184303410658244	0.3549949476451609	0.7653352706661563	0.03951524634289701	-0.03231698776307869	0.8192981889613398	0.06388393708729682	-0.021004044667469822	0.6569493895280695	0.014067168345469644	-0.01171597909321162	0.6707179997040857	0.04393257944242878	-0.08765615512156608	0.8592822225550031	0.17663560294733743	1.3233254677894724	0.7067803008051137	0.17872264845382968	1.5733622141312726	0.6923741140967873	0.2191452477481389	1.4502503100020432	0.6134009876630275	0.3443199160843884	1.2589772764357436	0.7591258819526095	0.4101797455982907	0.9955391054425135	0.8410820033268901	0.40010267812894196	0.750437836185791	0.7700894639468083	0.33031531939130654	0.6767946665927926	0.6818381304317224	0.34597098345362787	0.6376824473833763	0.7212641775376074	0.3645142867848631	0.6126267434230622	0.7473118902044278	0.032008308002897126	1.2266149531846533	0.6929108308193977	-0.015213501029966915	0.9762505040985539	0.6489540917218418	0.07728965439293772	0.7287303973673127	0.6015720136193341	0.13279318777220972	0.6396850999022089	0.6804103342380192	0.12232212007989365	0.5986995298174632	0.6667904516040486	0.08004443782798869	0.612662963256728	0.6156410412422587	
102	1.728813559322034	0.298939889782471	0.7151750407790504	0.8096138845825369	0.25642035413245523	0.33549877526576677	0.8168077547423608	0.23198349254840647	-0.011978277511755536	0.7976116779989414	0.22377670882385658	-0.05318215219824328	0.6949428356303199	0.2804859253659294	-0.056521961220056274	0.7019118589876542	0.20745134420831274	-0.07707701403701242	0.8516701284311546	0.10969160050535019	0.7368760181748918	0.7202026206348966	0.10225413385800419	0.3549167365371792	0.7641382261891176	0.03951079285506624	-0.032318918879704145	0.8193035572720232	0.06390512479981664	-0.021004210228430548	0.6569872951823583	0.014079939703676225	-0.011624540414912787	0.6706598175641997	0.04392793504337919	-0.08763942520315009	0.8592581437827589	0.17676228456472598	1.3233025684008894	0.7064904678753874	0.17967067390022323	1.5736072489427964	0.689955414261957	0.21916000250031964	1.4484268780121305	0.6132280127946447	0.34430758299378256	1.2590141087495188	0.7591869162647653	0.41019471728919277	0.9955885361971586	0.8410225723227702	0.39999582440228354	0.750120460661219	0.7705323415969002	0.3306092446197159	0.677136743483836	0.681968038215664	0.3459897233696844	0.637577105258963	0.7212184406912452	0.3654437575138303	0.6131900932698781	0.7474734250551134	0.03216420507176909	1.2265251733776488	0.6931610284816093	-0.015002978901100394	0.9769851007091839	0.6453186048262762	0.07723257689162347	0.728638649030277	0.6017110792933091	0.13456755973717793	0.6390994197606601	0.6763426522136113	0.12452928574283373	0.5981337221353209	0.6667425080816097	0.08051360822336162	0.6130925001339735	0.6146856771330402	
103	1.7457627118644068	0.2989166292011058	0.715121667397189	0.8094680753468644	0.25649181199443843	0.3358140274187628	0.8156309576443608	0.23214730129940356	-0.011886093047340993	0.7976562240669786	0.22378339126679092	-0.05292266869538112	0.6949563773750571	0.2807213791757204	-0.056361306698007894	0.7017581536193113	0.20701663428154266	-0.0777426959380372	0.8535783718445848	0.11004038367698106	0.7370625769750336	0.7196403215130733	0.10253320909727837	0.3547902511394018	0.7630294997558547	0.03951369585511622	-0.03229319656216764	0.8193103625105151	0.06392167407980819	-0.021008181404322104	0.6570270425165596	0.014184472385580736	-0.01144397163041902	0.6704481267904208	0.04392847477602335	-0.08761477984127512	0.8592295286144901	0.1768657038368125	1.3232821883618548	0.7062483288816839	0.18066459336667634	1.573747593312419	0.6874105561099876	0.21917799218472944	1.4465669302072255	0.6130624832078997	0.3443062446843851	1.2590885237622813	0.7591917144777031	0.4101965305065567	0.9956225268872034	0.841012736908733	0.39991650611686036	0.7499419870366103	0.7708756411165952	0.33123125875368764	0.677868992084565	0.6822545668648431	0.3460155137526293	0.6375512613726281	0.7211409928268901	0.36619313149463756	0.6140509411416238	0.747767036416174	0.032438187353142016	1.22627905043809	0.6942229091379769	-0.014879400848658573	0.9772895046736232	0.643447003896766	0.07714863317667617	0.7285106147314244	0.6019252491973319	0.1363834143739975	0.6375460959311882	0.6728253154052724	0.12666884195502756	0.5981287443293277	0.6651488310634375	0.08134441130945325	0.6137980111010786	0.6128788047898722	
104	1.7627118644067796	0.298907587669224	0.715080672712889	0.8093906742349051	0.2565394111132959	0.3362065444006402	0.8138466388923186	0.23237148350644074	-0.011835680610917193	0.7977510319465484	0.2237912700502512	-0.05299950303836609	0.6950225906796985	0.2805077436774799	-0.056597161161532475	0.702154644773949	0.2066005521345683	-0.07835314364414026	0.8556372600818811	0.11023368462257438	0.7371013533924335	0.7192841626904878	0.10274878730826051	0.3546236692418075	0.7620295119568853	0.03951717045277045	-0.03226394015794358	0.8193211262478127	0.06392561223083093	-0.021049697797286125	0.6570860296107506	0.014390597796348277	-0.011290141398967765	0.6700551623701657	0.04393056205250955	-0.08758806777518721	0.8592070079335428	0.17677031028307155	1.3232275115655705	0.7065083133415626	0.1815676087311825	1.573771224396237	0.6850913519247683	0.21917235498931742	1.4447511528455417	0.6129178381358701	0.3443377633276218	1.2590150484927505	0.7591166696844163	0.41018747132898303	0.9956373897404381	0.8410392804841377	0.4000190013338468	0.74996337659532	0.7706094837805523	0.3321038590478834	0.6786892614570633	0.6826628836675434	0.3460489621971795	0.6375982502273868	0.7210590348488036	0.3667757190914378	0.615005695195748	0.7481249274676465	0.03278449100496996	1.225890945468431	0.6960727058623626	-0.01441904236337389	0.9769577313280958	0.6432527390865295	0.07713909908445862	0.7284343841441309	0.6019941558963037	0.13815971199871127	0.6350095256010186	0.6699068068536882	0.12852598314948344	0.598729475997925	0.6617992609267389	0.08238709311378971	0.6146743187633996	0.6105509981867274	
